<?xml version="1.0" encoding="utf-8"?>
<!-- Generator: Adobe Illustrator 16.0.0, SVG Export Plug-In . SVG Version: 6.00 Build 0)  -->
<!DOCTYPE svg PUBLIC "-//W3C//DTD SVG 1.1//EN" "http://www.w3.org/Graphics/SVG/1.1/DTD/svg11.dtd">
<svg version="1.1"
	 id="svg2" xmlns:rdf="http://www.w3.org/1999/02/22-rdf-syntax-ns#" xmlns:svg="http://www.w3.org/2000/svg" xmlns:cc="http://creativecommons.org/ns#" xmlns:dc="http://purl.org/dc/elements/1.1/"
	 xmlns="http://www.w3.org/2000/svg" xmlns:xlink="http://www.w3.org/1999/xlink" x="0px" y="0px" width="156.312px"
	 height="156.312px" viewBox="199 1.401 156.312 156.312" enable-background="new 199 1.401 156.312 156.312" xml:space="preserve">
<path fill="#2A2E35" d="M348.77,58.072C332.657,4.361,309.381-8.171,255.671,7.943s-66.242,39.389-50.128,93.099
	c16.114,53.709,39.388,66.242,93.099,50.127C352.35,135.055,364.883,111.78,348.77,58.072"/>
<g>
	<path fill="#FFFFFF" d="M290.946,76.567c0.174,2.3,0.491,4.12,0.955,5.458c0.463,1.338,1.022,2.332,1.68,2.98
		c0.658,0.646,1.4,0.998,2.229,1.055c0.828,0.057,1.709-0.07,2.638-0.377c1.395-0.463,2.567-1.342,3.52-2.633
		c0.953-1.293,1.629-2.891,2.029-4.792c0.4-1.901,0.512-4.038,0.332-6.41s-0.7-4.854-1.559-7.441
		c-1.432-4.314-3.366-7.892-5.801-10.731c-2.434-2.84-5.23-4.958-8.385-6.363c-3.156-1.401-6.584-2.104-10.29-2.11
		c-3.704-0.003-7.547,0.655-11.531,1.978c-4.38,1.454-8.157,3.619-11.328,6.496c-3.171,2.877-5.653,6.196-7.443,9.959
		c-1.791,3.764-2.813,7.843-3.067,12.238c-0.254,4.395,0.362,8.834,1.85,13.315c1.806,5.441,4.243,9.949,7.307,13.518
		c3.064,3.57,6.534,6.252,10.407,8.041c3.873,1.791,8.042,2.719,12.503,2.785s9.015-0.672,13.663-2.215
		c2.555-0.848,4.898-1.783,7.027-2.805c2.131-1.018,4.043-2.078,5.743-3.176c1.698-1.1,3.208-2.209,4.532-3.33
		c1.322-1.121,2.467-2.227,3.429-3.32c0.697-0.783,1.411-1.188,2.142-1.209c0.729-0.02,1.376,0.318,1.939,1.016l3.164,3.869
		c-2.703,3.4-6.124,6.582-10.263,9.539c-4.14,2.959-9.162,5.42-15.07,7.381c-6.007,1.994-11.88,2.893-17.618,2.699
		c-5.739-0.195-11.062-1.441-15.968-3.736c-4.907-2.293-9.258-5.631-13.051-10.008c-3.792-4.377-6.742-9.738-8.846-16.074
		c-1.179-3.551-1.87-7.154-2.069-10.811c-0.2-3.654,0.059-7.231,0.775-10.731c0.718-3.497,1.864-6.872,3.438-10.121
		c1.574-3.249,3.528-6.237,5.865-8.967c2.337-2.728,5.044-5.147,8.12-7.255c3.078-2.107,6.474-3.779,10.191-5.014
		c4.712-1.563,9.496-2.277,14.351-2.138c4.854,0.138,9.438,1.122,13.746,2.95c4.311,1.831,8.165,4.53,11.561,8.1
		c3.396,3.572,5.975,8.013,7.737,13.321c1.18,3.553,1.761,7.053,1.747,10.502c-0.015,3.451-0.582,6.633-1.695,9.543
		c-1.116,2.914-2.726,5.445-4.828,7.6c-2.104,2.154-4.649,3.725-7.637,4.719c-2.289,0.76-4.49,0.9-6.602,0.422
		c-2.111-0.477-3.891-1.783-5.336-3.922c-1.165,3.041-2.672,5.439-4.521,7.195c-1.848,1.756-4.05,3.057-6.605,3.906
		c-2.09,0.695-4.028,0.932-5.814,0.715c-1.786-0.219-3.413-0.795-4.883-1.723c-1.469-0.932-2.751-2.184-3.843-3.754
		c-1.094-1.57-1.981-3.385-2.664-5.443c-0.628-1.893-1.024-3.889-1.188-5.99c-0.163-2.1-0.063-4.215,0.299-6.343
		c0.361-2.128,1.003-4.221,1.924-6.275c0.92-2.056,2.155-3.996,3.705-5.818c1.551-1.822,3.432-3.479,5.646-4.969
		c2.214-1.489,4.779-2.721,7.701-3.689c2.589-0.86,4.86-1.395,6.819-1.602c1.957-0.207,3.903-0.227,5.838-0.06L290.946,76.567z
		 M280.891,65.755c-1.13,0.154-2.258,0.418-3.385,0.793c-2.059,0.682-3.833,1.77-5.328,3.261c-1.496,1.491-2.646,3.219-3.449,5.18
		c-0.804,1.962-1.26,4.058-1.368,6.284c-0.107,2.229,0.191,4.404,0.896,6.529c0.706,2.123,1.709,3.623,3.014,4.498
		c1.304,0.875,2.834,1.02,4.594,0.438c0.862-0.285,1.69-0.707,2.482-1.266c0.79-0.559,1.472-1.309,2.042-2.254
		c0.571-0.945,1-2.092,1.29-3.441c0.289-1.348,0.368-2.941,0.238-4.775L280.891,65.755z"/>
</g>
</svg>
