<?xml version="1.0" encoding="utf-8"?>
<!-- Generator: Adobe Illustrator 16.0.0, SVG Export Plug-In . SVG Version: 6.00 Build 0)  -->
<!DOCTYPE svg PUBLIC "-//W3C//DTD SVG 1.1//EN" "http://www.w3.org/Graphics/SVG/1.1/DTD/svg11.dtd">
<svg version="1.1"
	 id="svg2" xmlns:rdf="http://www.w3.org/1999/02/22-rdf-syntax-ns#" xmlns:svg="http://www.w3.org/2000/svg" xmlns:cc="http://creativecommons.org/ns#" xmlns:dc="http://purl.org/dc/elements/1.1/"
	 xmlns="http://www.w3.org/2000/svg" xmlns:xlink="http://www.w3.org/1999/xlink" x="0px" y="0px" width="548.588px"
	 height="156.712px" viewBox="0 0 548.588 156.712" enable-background="new 0 0 548.588 156.712" xml:space="preserve">
<path id="path30" fill="#373D47" d="M226.656,42.486c4.779,2.085,5.126,3.649,1.39,10.772c-3.821,7.297-4.778,7.732-9.469,5.82
	c-5.908-2.519-13.466-4.431-18.332-4.431c-7.991,0-13.291,2.867-13.291,7.211c0,14.334,45.784,6.602,45.784,37.182
	c0,15.378-13.206,25.629-33.013,25.629c-10.425,0-23.284-3.475-32.145-7.992c-4.43-2.259-4.69-3.563-0.869-10.859
	c3.303-6.43,4.344-7.124,9.123-5.126c7.558,3.302,17.115,5.821,23.544,5.821c7.297,0,12.162-2.955,12.162-7.298
	c0-13.9-46.565-7.298-46.565-36.922c0-15.724,13.118-26.236,32.751-26.236C206.936,36.057,218.578,38.836,226.656,42.486"/>
<path id="path34" fill="#373D47" d="M323.554,98.694c0,5.821,4.952,9.729,12.424,9.729c9.035,0,17.2-4.344,21.979-11.728V89.05
	c-4.778-1.824-10.599-2.867-15.812-2.867C331.025,86.183,323.554,91.484,323.554,98.694z M378.807,70.286v49.085
	c0,2.605-1.824,4.43-4.431,4.43H362.56c-2.692,0-4.604-1.998-4.43-4.69l0.174-5.3c-6.429,7.123-15.638,10.859-24.847,10.859
	c-17.896,0-29.885-10.338-29.885-25.802c0-16.419,13.553-27.453,33.882-27.54c7.732,0,14.769,1.39,20.502,3.735v-5.646
	c0-9.035-7.124-14.421-19.198-14.421c-5.647,0-12.598,2.259-18.158,5.473c-4.257,2.433-5.3,2.259-9.903-4.604
	c-4.518-6.864-4.344-8.167,0-10.947c8.34-5.386,19.634-8.861,30.059-8.861C364.124,36.057,378.807,48.741,378.807,70.286"/>
<path id="path36" fill="#373D47" d="M458.126,42.66c4.343,2.519,4.518,3.909-0.261,11.293c-4.517,6.95-5.299,7.385-10.076,4.952
	c-3.65-1.912-9.471-3.562-14.249-3.562c-15.028,0-25.021,9.903-25.021,24.845c0,15.551,9.992,25.977,25.021,25.977
	c5.214,0,11.729-1.998,15.985-4.344c4.344-2.52,5.3-2.346,9.903,4.344c4.17,6.255,4.084,7.73,0.348,10.338
	c-6.688,4.604-17.288,8.166-26.583,8.166c-27.8,0-46.393-17.809-46.393-44.48c0-26.496,18.593-44.132,46.565-44.132
	C441.88,36.057,451.871,38.924,458.126,42.66"/>
<path id="path38" fill="#373D47" d="M546.826,112.941c3.475,4.431,2.085,5.995-6.603,9.123c-8.861,3.213-10.077,3.039-13.204-1.043
	l-24.847-33.187l-11.12,10.772v21.545c0,1.738-1.824,3.563-4.431,3.563h-11.988c-2.606,0-4.432-1.824-4.432-3.563V6.171
	c0-5.646,1.564-6.167,10.426-6.167c10.077,0,10.425,0.695,10.425,6.167V70.98l34.055-32.665c3.736-3.563,5.821-3.301,12.51,1.129
	c7.386,4.778,7.906,6.081,4.344,9.556l-25.367,24.673L546.826,112.941"/>
<path fill="#2A2E35" d="M149.771,57.072C133.656,3.361,110.382-9.17,56.671,6.943C2.96,23.056-9.571,46.332,6.542,100.042
	c16.114,53.709,39.388,66.242,93.099,50.127C153.351,134.056,165.884,110.781,149.771,57.072"/>
<g>
	<path fill="#FFFFFF" d="M91.946,75.567c0.173,2.3,0.491,4.12,0.955,5.457c0.463,1.339,1.022,2.333,1.68,2.98
		s1.399,0.998,2.229,1.056c0.828,0.056,1.709-0.07,2.638-0.378c1.394-0.463,2.567-1.342,3.52-2.633
		c0.954-1.293,1.629-2.891,2.029-4.792s0.512-4.038,0.333-6.41c-0.18-2.372-0.701-4.854-1.56-7.441
		c-1.431-4.314-3.366-7.892-5.8-10.731c-2.434-2.84-5.231-4.958-8.385-6.363c-3.155-1.401-6.584-2.104-10.29-2.11
		c-3.704-0.003-7.547,0.655-11.531,1.978c-4.38,1.454-8.157,3.619-11.328,6.496c-3.171,2.877-5.653,6.196-7.443,9.959
		c-1.791,3.764-2.813,7.843-3.067,12.238s0.362,8.834,1.85,13.314c1.806,5.442,4.243,9.949,7.307,13.519
		c3.064,3.569,6.534,6.251,10.407,8.041s8.042,2.719,12.503,2.785c4.462,0.066,9.015-0.673,13.662-2.216
		c2.555-0.848,4.898-1.783,7.027-2.804c2.131-1.019,4.044-2.079,5.744-3.177c1.698-1.1,3.208-2.209,4.532-3.329
		c1.323-1.121,2.467-2.227,3.429-3.321c0.697-0.782,1.412-1.187,2.141-1.209c0.729-0.02,1.376,0.318,1.939,1.016l3.164,3.869
		c-2.703,3.401-6.124,6.583-10.262,9.54c-4.14,2.959-9.162,5.419-15.07,7.38c-6.007,1.994-11.88,2.894-17.618,2.699
		c-5.739-0.194-11.062-1.44-15.968-3.735c-4.907-2.294-9.258-5.631-13.051-10.008c-3.792-4.378-6.742-9.738-8.846-16.075
		c-1.179-3.551-1.87-7.154-2.069-10.81c-0.2-3.654,0.059-7.231,0.775-10.731c0.718-3.497,1.864-6.872,3.438-10.121
		c1.574-3.249,3.528-6.237,5.865-8.967c2.337-2.728,5.044-5.147,8.12-7.255c3.078-2.107,6.474-3.779,10.191-5.014
		c4.712-1.563,9.496-2.277,14.351-2.138c4.854,0.138,9.437,1.122,13.746,2.95c4.311,1.831,8.165,4.53,11.56,8.1
		c3.396,3.572,5.976,8.013,7.738,13.321c1.18,3.553,1.761,7.053,1.747,10.502c-0.014,3.451-0.582,6.633-1.695,9.543
		c-1.116,2.914-2.725,5.445-4.828,7.6c-2.103,2.155-4.649,3.726-7.636,4.719c-2.289,0.76-4.491,0.901-6.602,0.423
		c-2.112-0.478-3.891-1.783-5.336-3.922c-1.165,3.041-2.672,5.438-4.521,7.195c-1.848,1.756-4.05,3.057-6.606,3.905
		c-2.09,0.695-4.028,0.932-5.814,0.715c-1.786-0.218-3.413-0.794-4.883-1.723c-1.469-0.931-2.751-2.183-3.843-3.754
		c-1.094-1.57-1.981-3.385-2.664-5.443c-0.628-1.892-1.024-3.888-1.188-5.989c-0.163-2.101-0.063-4.215,0.299-6.344
		c0.361-2.128,1.003-4.221,1.924-6.275c0.92-2.056,2.155-3.996,3.705-5.818c1.551-1.822,3.432-3.479,5.646-4.969
		c2.214-1.489,4.779-2.721,7.701-3.689c2.589-0.86,4.861-1.395,6.819-1.602c1.957-0.207,3.903-0.227,5.838-0.06L91.946,75.567z
		 M81.891,64.755c-1.129,0.154-2.258,0.418-3.384,0.793c-2.059,0.682-3.833,1.77-5.328,3.261c-1.496,1.491-2.646,3.219-3.449,5.18
		c-0.804,1.962-1.26,4.058-1.368,6.284c-0.107,2.229,0.191,4.404,0.896,6.528c0.706,2.123,1.709,3.623,3.014,4.498
		c1.304,0.876,2.834,1.021,4.594,0.438c0.862-0.285,1.69-0.707,2.482-1.266c0.79-0.558,1.471-1.309,2.042-2.254
		c0.572-0.944,1-2.091,1.291-3.44c0.289-1.349,0.368-2.941,0.238-4.776L81.891,64.755z"/>
</g>
<path fill="#373D47" d="M276.283,123.341c-7.981,0-14.102-2.247-18.358-6.745c-4.259-4.495-6.387-10.705-6.387-18.626V46.785h-9.379
	c-1.192,0-2.205-0.387-3.038-1.162c-0.835-0.773-1.25-1.934-1.25-3.484v-8.754l14.739-2.412l4.646-25.013
	c0.296-1.191,0.862-2.113,1.697-2.77c0.832-0.654,1.904-0.982,3.215-0.982h11.434v28.855h24.475v15.722h-24.475v49.668
	c0,2.858,0.699,5.091,2.1,6.699c1.398,1.607,3.318,2.412,5.762,2.412c1.369,0,2.516-0.164,3.439-0.491
	c0.922-0.327,1.727-0.671,2.411-1.028s1.295-0.698,1.832-1.025c0.535-0.328,1.071-0.493,1.608-0.493
	c0.654,0,1.189,0.165,1.607,0.493c0.415,0.327,0.862,0.818,1.34,1.473l6.609,10.72c-3.215,2.681-6.908,4.706-11.076,6.075
	C285.065,122.656,280.749,123.341,276.283,123.341z"/>
</svg>
